<svg width="48" height="50" fill="none" xmlns="http://www.w3.org/2000/svg"><path fill-rule="evenodd" clip-rule="evenodd" d="M23.236 0v5.553h-4.443c-.014-1.082 0-2.165.043-3.246 1.462-.781 2.929-1.55 4.4-2.307ZM25.714.085a98.447 98.447 0 0 1 4.87 2.52c-1.691 4.391-3.343 8.791-4.956 13.2-.046.005-.074.033-.085.085 1.653.03 3.276.115 4.87.256a265.625 265.625 0 0 0-4.571 11.875 40.602 40.602 0 0 0-2.392 9.74c-.043 3.986-.057 7.973-.043 11.96H18.88c-.014-4.101 0-8.202.043-12.302a43.394 43.394 0 0 1 1.794-8.202 177.265 177.265 0 0 1 3.546-9.653 118.731 118.731 0 0 0-4.528-.128.193.193 0 0 1-.086-.129 934.932 934.932 0 0 1 5.895-15.89l.17-3.332Z" fill="#6A513D"/><path fill-rule="evenodd" clip-rule="evenodd" d="m25.714.085-.171 3.332c-.029-1.14 0-2.28.085-3.417.052.01.08.039.086.085ZM31.694 3.161c1.384.707 2.78 1.39 4.186 2.05v44.51h-4.272c-.028-15.534 0-31.054.086-46.56ZM10.935 6.578l.17 32.208c.19.97.73 1.241 1.624.811a.732.732 0 0 0 .256-.555.474.474 0 0 0 .128-.256c.043-11.135.057-22.27.043-33.404a312.03 312.03 0 0 0 4.229-2.306c.057 11.846.057 23.692 0 35.539-.61 3.854-2.845 5.463-6.706 4.827-1.826-.487-3.008-1.64-3.546-3.46a6.756 6.756 0 0 0-.17-.855C6.821 29.02 6.792 18.91 6.876 8.8c1.348-.753 2.7-1.493 4.058-2.222ZM23.236 0c.085 1.865.114 3.744.086 5.638a60.04 60.04 0 0 1-4.528-.085h4.442V0ZM42.031 9.397c2.941-.247 4.806 1.034 5.596 3.845.132.591.217 1.189.256 1.794.057 9.739.057 19.478 0 29.217-.323 4.738-2.786 6.547-7.39 5.425-1.35-.64-2.247-1.679-2.69-3.118a37.528 37.528 0 0 1-.342-2.307c-.084-10.025-.055-20.05.085-30.072.19-1.762 1.002-3.143 2.435-4.143a5.723 5.723 0 0 1 2.05-.64Z" fill="#000"/><path fill-rule="evenodd" clip-rule="evenodd" d="M11.361 49.72H.17C.14 37.213.17 24.712.255 12.216a134.3 134.3 0 0 1 4.015-2.135c.086 11.96.114 23.92.086 35.88h7.005v3.76Z" fill="#000"/><path fill-rule="evenodd" clip-rule="evenodd" d="M42.373 13.156c.63-.077 1.044.18 1.239.77.057 10.479.057 20.958 0 31.438-.176.764-.646 1.035-1.41.811a1.67 1.67 0 0 1-.47-.811 2812.012 2812.012 0 0 1 0-31.012c.016-.515.23-.913.64-1.196Z" fill="#fff"/><path fill-rule="evenodd" clip-rule="evenodd" d="M.256 12.217A4125.493 4125.493 0 0 0 .17 49.72a4097.305 4097.305 0 0 1-.085-37.419c.03-.072.086-.1.17-.085ZM19.648 19.307c.01.053.038.096.086.128 1.524.015 3.033.057 4.528.128h-4.699c-.02-.11.008-.195.085-.256Z" fill="#000"/><path fill-rule="evenodd" clip-rule="evenodd" d="M25.543 32.208h4.528V49.72h-4.528V32.208Z" fill="#6A513D"/><path fill-rule="evenodd" clip-rule="evenodd" d="M17.342 45.877v3.844h-4.698v-3.844h4.698Z" fill="#000"/><path fill-rule="evenodd" clip-rule="evenodd" d="M17.342 45.877c.085 1.294.114 2.604.086 3.93-1.61.027-3.205-.001-4.784-.086h4.698v-3.844Z" fill="#000"/></svg>