<svg width="31" height="30" fill="none" xmlns="http://www.w3.org/2000/svg"><path d="M13 10c0 2.357 0 3.536-.732 4.268C11.536 15 10.357 15 8 15c-2.357 0-3.536 0-4.268-.732C3 13.536 3 12.357 3 10c0-2.357 0-3.536.732-4.268C4.464 5 5.643 5 8 5c2.357 0 3.536 0 4.268.732C13 6.464 13 7.643 13 10Z" fill="#6A513D" stroke="#6A513D" stroke-width="1.5"/><path d="M13 8.75v5.603C13 19.318 9.855 23.53 5.5 25" stroke="#6A513D" stroke-width="1.5" stroke-linecap="round"/><path d="M28 10c0 2.357 0 3.536-.732 4.268C26.535 15 25.357 15 23 15c-2.357 0-3.535 0-4.268-.732C18 13.536 18 12.357 18 10c0-2.357 0-3.536.732-4.268C19.465 5 20.643 5 23 5c2.357 0 3.535 0 4.268.732C28 6.464 28 7.643 28 10Z" fill="#6A513D" stroke="#6A513D" stroke-width="1.5"/><path d="M28 8.75v5.603c0 4.965-3.145 9.177-7.5 10.647" stroke="#6A513D" stroke-width="1.5" stroke-linecap="round"/></svg>