<svg width="50" height="50" fill="none" xmlns="http://www.w3.org/2000/svg"><path d="M38.022 21.875h2.896c3.857 0 5.003.553 4.91 3.3-.153 4.549-2.205 9.835-10.411 11.283" stroke="#6A513D" stroke-width="2.344" stroke-linecap="round"/><path d="M12.388 42.947c-7.03-5.405-8.065-13.072-8.218-21.072-.066-3.456.937-4.167 5.537-4.167H31.96c4.6 0 5.603.711 5.537 4.167-.152 8-1.188 15.667-8.218 21.072-2 1.538-3.689 1.845-6.53 1.845h-3.83c-2.842 0-4.53-.307-6.53-1.845Z" stroke="#6A513D" stroke-width="2.344" stroke-linecap="round"/><path d="M20.833 17.708v10.417m-3.116 5.826.608-3.857c.178-1.13 1.246-1.97 2.506-1.97 1.26 0 2.327.84 2.505 1.97l.608 3.857c.328 2.079-6.515 1.825-6.227 0ZM23.56 5.208c-1.14.706-2.724 3.125-2.724 6.25m-5.129-3.125s-1.124 1.042-1.124 3.125m14.586-3.125c-.57.353-1.044 2.084-1.044 3.125" stroke="#6A513D" stroke-width="2.344" stroke-linecap="round" stroke-linejoin="round"/></svg>