<svg width="51" height="50" fill="none" xmlns="http://www.w3.org/2000/svg"><path d="M19.25 4.167v6.25M31.75 4.167v6.25M25.5 37.5v8.333M26.946 17.708l-4.357 4.531c-.466.486-.132 1.184.63 1.314l4.563.775c.811.137 1.12.91.553 1.383l-5.405 4.497" stroke="#6A513D" stroke-width="2.344" stroke-linecap="round" stroke-linejoin="round"/><path d="M30.305 10.417h-9.61c-4.456 0-6.683 0-7.914 1.453-1.23 1.454-.891 3.685-.214 8.147l1.091 7.188C14.742 34.34 17.762 37.5 25.5 37.5c7.737 0 10.758-3.16 11.841-10.296l1.091-7.187c.678-4.462 1.016-6.693-.214-8.147-1.23-1.453-3.458-1.453-7.913-1.453Z" stroke="#6A513D" stroke-width="2.344"/></svg>