<svg width="50" height="50" fill="none" xmlns="http://www.w3.org/2000/svg"><path d="M45.834 43.75V20.022c0-2.756 0-4.134-.717-5.201-.716-1.067-1.985-1.58-4.522-2.603l-12.5-5.043C26.567 6.558 25.803 6.25 25 6.25c-.802 0-1.566.308-3.095.925l-12.5 5.043c-2.537 1.024-3.805 1.536-4.522 2.603-.716 1.067-.716 2.445-.716 5.201V43.75M33.334 39.583v4.167m-16.667-4.167v4.167" stroke="#6A513D" stroke-width="2.344" stroke-linecap="round" stroke-linejoin="round"/><path d="m15.625 29.167.505-2.022c.758-3.031 1.137-4.547 2.267-5.43 1.13-.882 2.693-.882 5.818-.882h1.57c3.125 0 4.687 0 5.818.883 1.13.882 1.509 2.398 2.267 5.43l.505 2.02M35.417 29.167H14.583c-1.15 0-2.083.932-2.083 2.083v6.25c0 1.15.933 2.083 2.083 2.083h20.834c1.15 0 2.083-.932 2.083-2.083v-6.25c0-1.15-.933-2.083-2.083-2.083ZM17.708 34.354v.021M32.292 34.354v.021" stroke="#6A513D" stroke-width="2.344" stroke-linecap="round" stroke-linejoin="round"/></svg>