<svg width="50" height="50" fill="none" xmlns="http://www.w3.org/2000/svg"><path d="m22.33 14.295 8.92 19.038c-4.514 0-5.887-2.38-10.598-4.761-3.768-1.905-9.027-1.588-10.597-1.19l6.315-4.466c.642-.454.964-.681 1.066-1.027.103-.346-.042-.712-.333-1.443l-.884-2.225c-.33-.832-.495-1.248-.794-1.55a2.085 2.085 0 0 0-.343-.28c-.356-.232-.796-.31-1.678-.466l-6.772-1.202a2.987 2.987 0 0 1 .949-5.897l9.157 1.323c1.65.238 2.475.357 3.163.75.286.165.552.362.793.589.576.544.93 1.298 1.636 2.807ZM39.583 27.083a6.25 6.25 0 1 0 0-12.5 6.25 6.25 0 0 0 0 12.5ZM4.167 37.675c2.2-7.357 12.018-3.98 19.792 0 7.774 3.981 15.625 6.514 19.791 0" stroke="#6A513D" stroke-width="2.344" stroke-linecap="round" stroke-linejoin="round"/></svg>