<svg width="51" height="50" fill="none" xmlns="http://www.w3.org/2000/svg"><path d="M16.614 28.609s1.887-2.546 3.125-3.126c3.74-1.751 4.5-2.512 6.25-6.252.58-1.24 3.125-3.126 3.125-3.126m-7.291 17.714s2.545-1.887 3.125-3.126c1.75-3.74 2.51-4.501 6.25-6.252 1.238-.58 3.125-3.126 3.125-3.126" stroke="#6A513D" stroke-width="2.344" stroke-linecap="round" stroke-linejoin="round"/><path d="M30.566 6.026a2.708 2.708 0 0 1 3.83-.006l10.024 9.996a2.71 2.71 0 0 1 .006 3.831l-3.184 3.196a2.708 2.708 0 0 1-3.83.006l-10.025-9.996a2.71 2.71 0 0 1-.006-3.831l3.184-3.196ZM9.696 26.88a2.708 2.708 0 0 1 3.83-.006L23.55 36.87a2.71 2.71 0 0 1 .006 3.832l-3.184 3.196a2.707 2.707 0 0 1-3.83.006L6.517 33.907a2.71 2.71 0 0 1-.006-3.83l3.185-3.197Z" stroke="#6A513D" stroke-width="2.344"/><path d="M37.87 7.193C41.793 2.053 48.71 8 43.3 12.56M7.539 37.453C2.58 41.6 8.828 48.247 13.14 42.637" stroke="#6A513D" stroke-width="2.344" stroke-linecap="round" stroke-linejoin="round"/></svg>