<svg width="24" height="25" fill="none" xmlns="http://www.w3.org/2000/svg"><g opacity=".5" stroke="#141B34" stroke-width="2" stroke-linecap="round"><path d="M22 18H2M22 21.5v-5c0-1.886 0-2.828-.586-3.414-.586-.586-1.528-.586-3.414-.586H6c-1.886 0-2.828 0-3.414.586C2 13.672 2 14.614 2 16.5v5" stroke-linejoin="round"/><path d="M16 12.5v-1.382c0-.508-.091-.678-.56-.877-.977-.417-2.162-.741-3.44-.741s-2.463.324-3.44.74c-.468.2-.56.37-.56.878V12.5"/><path d="M20 12.5V7.86c0-.691 0-1.037-.17-1.363-.172-.327-.415-.496-.902-.834A12.105 12.105 0 0 0 12 3.5c-2.577 0-4.966.8-6.928 2.163-.487.338-.73.507-.901.834C4 6.823 4 7.169 4 7.86V12.5"/></g></svg>