<svg width="21" height="20" fill="none" xmlns="http://www.w3.org/2000/svg"><path fill-rule="evenodd" clip-rule="evenodd" d="M6.048.06C7.114.012 7.455 0 10.17 0s3.057.012 4.123.06c1.625.073 3.053.47 4.199 1.61 1.145 1.139 1.544 2.558 1.618 4.175.048 1.06.06 1.4.06 4.1 0 2.701-.012 3.04-.06 4.101-.074 1.617-.473 3.036-1.618 4.176-1.146 1.14-2.574 1.535-4.199 1.61-1.066.047-1.407.059-4.123.059s-3.057-.012-4.123-.06c-1.625-.073-3.053-.47-4.199-1.61C.703 17.083.305 15.663.231 14.047c-.048-1.06-.06-1.4-.06-4.1 0-2.702.012-3.04.06-4.101.074-1.617.472-3.036 1.618-4.176C2.995.53 4.423.133 6.048.06Zm8.163 1.79c-1.054-.048-1.371-.058-4.041-.058-2.67 0-2.987.01-4.04.058-1.14.051-2.195.278-3.007 1.087-.813.808-1.041 1.858-1.093 2.99-.048 1.048-.058 1.363-.058 4.019 0 2.655.01 2.97.058 4.018.052 1.133.28 2.183 1.093 2.99.812.809 1.868 1.036 3.006 1.087 1.054.048 1.371.058 4.041.058 2.67 0 2.987-.01 4.04-.058 1.14-.051 2.195-.278 3.008-1.086.812-.808 1.04-1.858 1.092-2.99.048-1.049.058-1.364.058-4.02 0-2.655-.01-2.97-.058-4.018-.052-1.132-.28-2.182-1.092-2.99-.813-.809-1.869-1.036-3.007-1.087ZM5.034 9.945c0-2.82 2.3-5.107 5.135-5.107 2.836 0 5.135 2.287 5.135 5.107 0 2.82-2.299 5.107-5.135 5.107s-5.135-2.287-5.135-5.107Zm1.801 0a3.324 3.324 0 0 0 3.333 3.315 3.324 3.324 0 0 0 3.334-3.315 3.324 3.324 0 0 0-3.334-3.315 3.324 3.324 0 0 0-3.333 3.315Zm9.873-5.308c0 .659-.538 1.193-1.2 1.193-.663 0-1.2-.534-1.2-1.193 0-.66.537-1.194 1.2-1.194.662 0 1.2.535 1.2 1.194Z" fill="#0A142F"/></svg>