<svg width="20" height="16" fill="none" xmlns="http://www.w3.org/2000/svg"><path d="m17.206 4.054.012.506c0 5.173-3.957 11.133-11.194 11.133a11.18 11.18 0 0 1-6.03-1.758 7.922 7.922 0 0 0 5.825-1.62A3.938 3.938 0 0 1 2.14 9.599c.242.046.486.068.742.068.36 0 .707-.046 1.036-.135C2.12 9.169.764 7.59.764 5.695v-.05a3.945 3.945 0 0 0 1.782.49A3.907 3.907 0 0 1 1.327.914 11.186 11.186 0 0 0 9.437 5a3.865 3.865 0 0 1-.102-.892c0-2.159 1.762-3.911 3.935-3.911 1.131 0 2.154.474 2.873 1.235a7.993 7.993 0 0 0 2.499-.95 3.927 3.927 0 0 1-1.73 2.166 7.92 7.92 0 0 0 2.26-.616 7.928 7.928 0 0 1-1.966 2.02Z" fill="#0A142F"/></svg>